<?xml version="1.0" encoding="UTF-8"?>
<svg xmlns="http://www.w3.org/2000/svg" width="820" height="520" viewBox="0 0 820 520">
<defs>
<linearGradient id="bg" x1="0" y1="0" x2="1" y2="1"><stop offset="0%" stop-color="#161b22"/><stop offset="100%" stop-color="#0d1117"/></linearGradient>
<filter id="glow"><feGaussianBlur stdDeviation="1.6" result="b"/><feMerge><feMergeNode in="b"/><feMergeNode in="SourceGraphic"/></feMerge></filter>
<style>
.head{fill:#e6edf3;font:700 18px Consolas,Monaco,monospace}
.section{fill:#39ff88;font:700 19px Consolas,Monaco,monospace}
.label{fill:#ffad3d;font:16px Consolas,Monaco,monospace}
.value{fill:#58a6ff;font:16px Consolas,Monaco,monospace}
.sep{stroke:#30363d;stroke-width:1}
</style></defs>
<rect x="4" y="4" width="812" height="512" rx="15" fill="url(#bg)" stroke="#30363d" stroke-width="2"/>
<rect x="5" y="5" width="810" height="43" rx="15" fill="#21262d"/>
<circle cx="27" cy="27" r="6.5" fill="#ff5f56"/><circle cx="49" cy="27" r="6.5" fill="#ffbd2e"/><circle cx="71" cy="27" r="6.5" fill="#27c93f"/>
<text x="96" y="33" class="head">you@abhiiml</text>
<rect x="766" y="14" width="30" height="25" rx="5" fill="#30363d"/>
<path d="M774 20h10v10h-10zM778 17h10v10" fill="none" stroke="#58a6ff" stroke-width="1.5"/>
<line x1="20" y1="58" x2="800" y2="58" class="sep"/>

<text x="27" y="88" class="section" filter="url(#glow)">ABOUT ME</text><line x1="25" y1="98" x2="795" y2="98" class="sep"/>
<text x="35" y="123" class="label">Name</text><text x="180" y="123" class="value">Abhijit Pandey</text>
<text x="35" y="148" class="label">Role</text><text x="180" y="148" class="value">B.Tech CSE (AI/ML)</text>
<text x="35" y="173" class="label">Location</text><text x="180" y="173" class="value">India</text>
<text x="35" y="198" class="label">IDE</text><text x="180" y="198" class="value">VS Code</text>
<text x="35" y="223" class="label">OS</text><text x="180" y="223" class="value">Windows 11</text>

<text x="27" y="255" class="section" filter="url(#glow)">TECH STACK</text><line x1="25" y1="265" x2="795" y2="265" class="sep"/>
<text x="35" y="290" class="label">Languages</text><text x="180" y="290" class="value">Python | C++ | Java | JavaScript</text>
<text x="35" y="315" class="label">AI/ML</text><text x="180" y="315" class="value">TensorFlow | scikit-learn</text>
<text x="35" y="340" class="label">Database</text><text x="180" y="340" class="value">MongoDB | MySQL</text>
<text x="35" y="365" class="label">Tools</text><text x="180" y="365" class="value">Git | GitHub | Linux</text>

<text x="27" y="397" class="section" filter="url(#glow)">CONTACT</text><line x1="25" y1="407" x2="795" y2="407" class="sep"/>
<text x="35" y="432" class="label">Email</text><text x="180" y="432" class="value">abhijitayush456@gmail.com</text>
<text x="35" y="457" class="label">GitHub</text><text x="180" y="457" class="value">github.com/abhiiml</text>

<text x="27" y="487" class="section" filter="url(#glow)">CURRENTLY</text>
<text x="180" y="487" class="value">Learning Deep Learning • Building AI &amp; Web Projects</text>
</svg>
